<?xml version="1.0" encoding="UTF-8"?>
<!DOCTYPE svg PUBLIC "-//W3C//DTD SVG 1.1//EN" "http://www.w3.org/Graphics/SVG/1.1/DTD/svg11.dtd">
<!-- Creator: CorelDRAW 2021 (64-Bit) -->
<svg xmlns="http://www.w3.org/2000/svg" xml:space="preserve" width="0.718583in" height="0.63937in" version="1.1" style="shape-rendering:geometricPrecision; text-rendering:geometricPrecision; image-rendering:optimizeQuality; fill-rule:evenodd; clip-rule:evenodd"
viewBox="0 0 76.17 67.78"
 xmlns:xlink="http://www.w3.org/1999/xlink"
 xmlns:xodm="http://www.corel.com/coreldraw/odm/2003">
 <defs>
  <style type="text/css">
   <![CDATA[
    .fil0 {fill:#214FF4}
    .fil1 {fill:#FBFBFF}
   ]]>
  </style>
 </defs>
 <g id="Layer_x0020_1">
  <metadata id="CorelCorpID_0Corel-Layer"/>
  <g id="_1972572652448">
   <path class="fil0" d="M17.61 1.17c-0.08,0.97 0.97,1.1 -3.31,1.2l0 1.26 -1.36 0c-0.1,1.41 -0.5,1.04 -2.31,1.08l0 1.03 -1.16 0 0 1.32 -1.07 0 0 1.05 -1.43 0 0 1.04 -0.97 0 0 1.51 -1.38 0 0 1.17 -0.98 0c-0.01,0.56 0.05,0.78 -0.09,1.34 -0.39,1.59 -0.07,0.3 -0.46,0.93 -0.14,0.23 -0.64,-0.13 -0.69,2.51l-1.3 0 -0.16 3.53c-1.04,0.19 -0.54,-0.13 -0.84,0.83 -0.05,0.17 -0.1,1.49 -0.1,1.74l0.02 7.83c0.04,1.68 -0.25,2.21 1.02,2.35l0.26 3.82c2.93,0.12 -0.24,1.92 2.28,2.12l0 1.65 0.99 0 0 1.12c1.77,0.02 1.53,-0 1.62,2.26 0.56,0.07 1.2,-0.51 0.77,1.48 -0.25,0.84 0.56,0.44 -0.89,0.56l-0.08 3.77 -1.19 0 -0.29 4.93c-1.05,0.13 -0.78,-0.16 -0.93,1.63 -0.08,0.9 -0.06,2.12 -0.08,3.04 4.68,-0.1 3.52,0.05 3.7,-1.09l3.42 -0.24 0 -1.21c1.17,-0.02 1.32,0.11 2.26,-0.37 1.21,-0.62 -0.89,-0.35 2.03,-0.76 2.76,-0.39 0.95,-0.7 2.84,-1.04 0.51,-0.09 0.99,-0.05 1.51,-0.05l0 -1.26c2.64,-0.14 3.18,-0.15 5.76,0l0 1.37 1.1 0 0 0.99 1.22 0 0 0.96c2.27,0.06 2.27,-0.28 2.3,1.51l2.42 0.16c0.39,2.1 -0.05,0.37 1.21,0.92 1.2,0.52 1.01,-0.95 1.06,1.3l4.85 0.26c0.22,1.22 0.37,0.89 2.19,0.92l14.45 -0.04c0.16,1.17 -0.16,0.73 0.79,1.03 0.31,0.1 1.53,0.06 1.9,0.06l0 1.21 3.37 0.33c0.12,0.82 -0.97,0.96 3.4,1.06 0.39,2.14 -0.04,0.4 1.2,0.94 1.18,0.52 1,-0.95 1.05,1.32l4.96 0.21 -0.09 -2.64 -1.18 0c-0.15,-4.52 0.23,-4.41 -1.06,-4.59 -0.08,-7.58 -0.62,-3.11 -1.12,-6.01 -0.17,-1.01 -0.05,-2.46 0.31,-3.16l0.27 -0.41c0.04,-0.06 0.1,-0.15 0.14,-0.21 1.07,-1.54 -0.93,-0.89 1.37,-1.11l0 -1.21c1.77,-0.03 1.4,-0.12 1.46,-2.33 2.16,-0.29 0.46,0.1 1.01,-1.12 0.53,-1.16 -1.06,-1.03 1.3,-1.09l0.29 -4.76c1.48,-0.28 0.88,-1.64 0.88,-6.15 0,-1.88 0.07,-3.23 -0.54,-4.39 -0.01,-0.03 -0.53,0.66 -0.56,-2.82 -2.07,-0.03 -0.83,0.08 -1.24,-0.68 -0.81,-1.5 1.13,-1.04 -1,-1.47 -0.2,-4.96 -1.56,0.22 -1.75,-4.64l-1 0 0 -1.12 -1.05 0 0 -1.06 -1.42 0 0 -1.41 -1.11 0c-0.11,-1.45 -0.34,-1.17 -2.26,-1.25l0 -0.95 -1.24 0 0 -1.32 -2.42 -0.2c-0.1,-0.85 0.97,-1.04 -3.43,-1.12l0 -1.18c-4.72,-0.18 -2.63,-0.55 -4.39,-0.98 -0.54,-0.13 -1.2,-0.08 -1.76,-0.08l0 -1.06 -1.11 0c-0.02,-1.78 0.02,-1.52 -2.26,-1.6l0 -0.95 -1.23 0c-0.14,-1.46 -0.51,-1.1 -2.4,-1.15 -0.06,-2.23 0.01,-0.84 -0.78,-1.24 -1.52,-0.77 -1.09,1.07 -1.47,-0.98 -8.5,-0.23 0.23,-1.49 -13.3,-1.34l-7.23 0.14c-0.08,0.99 0.7,1.01 -3.49,1.02z"/>
   <path class="fil1" d="M20.16 2.36l0 1.16 -3.18 0.48c-0.07,0.03 -0.14,0.1 -0.2,0.13 -0.06,0.03 -0.14,0.1 -0.2,0.14 -1.27,0.68 -2.25,0.7 -3.21,1.79l-1.07 1c-0.73,0.36 -0.66,0.13 -1.27,0.48 -0.06,0.04 -0.15,0.1 -0.21,0.14l-3.93 3.91c-0.05,0.05 -0.12,0.13 -0.16,0.18 -0.73,0.97 0.11,-0.53 -0.35,0.63 -0.83,2.1 0.65,1.81 -1.68,1.87 -0.1,2.95 -0.02,1.24 -0.88,3.02 -0.7,1.46 -1.18,2.29 -1.26,4.01 -0.16,3.78 -0.83,8.76 0.67,12.02 0.31,0.66 0.1,0.32 0.35,1.08 0.93,2.81 2.01,3.58 2.4,4.36 0.16,0.33 0.17,0.59 0.25,0.81 0.41,1.07 2.09,2.84 3.29,3l-1.13 6.96 -1.18 0c-0.01,0.58 0.02,1.31 -0.01,1.88 -0.02,0.25 -0.07,0.78 -0.13,1 -0.45,1.65 -0.91,-0.21 -0.92,4.16 1.76,-0.16 -0.21,-0.14 3.39,-1.04 1.41,-0.35 1.41,-1.01 3.72,-1.03l0 -1.23c0.69,-0.05 2.28,-0.15 2.84,-0.38l0.41 -0.26c0.06,-0.04 0.13,-0.11 0.2,-0.14l3.69 -1.23c1.64,-0.83 13.84,-0.3 16.38,-0.36l0 -1.22c0.97,-0.03 3.01,-0.04 3.87,-0.22 1.75,-0.36 0.11,0.03 1.11,-0.51l3.79 -2.31c0.68,-0.57 -0.53,0.23 0.57,-0.41l4.6 -3.9c0.05,-0.05 0.13,-0.12 0.18,-0.17l0.38 -0.31c0.06,-0.04 0.14,-0.1 0.2,-0.15l2.33 -2.69c1.06,-1.8 -0.16,-2.15 1.98,-2.22 0.05,-4.28 1.11,1.12 1.3,-9.8 0.02,-1.28 -0.01,-4.5 -0.2,-5.67 -0.32,-1.93 -1,-0.93 -1.07,-4.53l-1.35 0c-0.04,-2.52 -0.01,-1.86 -0.8,-2.77l-2.17 -2.45c-0.34,-0.34 -0.29,0.01 -0.57,-0.84 -0.22,-0.68 -0.11,-0.59 -0.14,-1.25l-2.42 -1.08c-0.06,-0.04 -0.15,-0.1 -0.22,-0.14l-1.07 -0.74c-1.03,-0.92 -0.78,0.7 -0.86,-1.61 -1.67,-0.1 -2.99,-0.79 -4.41,-1.61 -0.96,-0.56 0.5,-0.2 -1.15,-0.56 -0.55,-0.12 -2.18,-0.16 -2.8,-0.17l0 -1.19c-1.56,-0.04 -3.46,-0.01 -4.39,-0.4 -2.07,-0.89 -0.96,-0.6 -4.45,-0.63 -4.43,-0.04 -3.06,0.16 -4.12,0.6 -1.24,0.52 -3.26,0.38 -4.76,0.42z"/>
   <path class="fil1" d="M54.59 13.18c2.96,0.08 -0.14,1.8 2.34,2.02l0.17 2.49 1.24 0 0.08 2.73c1.43,0.13 1.02,1.02 1.04,5.16 0.01,2.18 -0.02,4.37 -0.02,6.55 -1.12,0.08 -1.09,-0.34 -1.2,4.65 -2.99,0.1 0.22,1.87 -2.3,2.1l0 1.68c-3.25,0.04 0.29,1.65 -2.59,1.89l0 1.44 -0.97 0 -0 1.12 -1.45 0 0 1.03 -1.12 0 0 1.36 -2.29 0.21 -0 0.95 -1.27 0c-0.13,1.44 -0.57,1.05 -2.41,1.09l0 1.29 -3.44 0.24c-0.39,2.42 -4.31,-0.51 -4.61,1.85l-8.38 0.26 -0 1.11c1.85,0.06 2.14,-0.22 2.28,1.17l1.26 0 0 0.94 3.25 0.34 0 1.17c4.19,0.06 1.1,0.79 4.34,1.05 5.5,0.45 10.95,-0.05 16.07,0.07l0 1.25 3.75 0.28c0.31,2.28 1.82,-0.39 2.2,1.83l3.43 0.26 0 1.25c3.36,0.04 1.87,0.56 3.3,0.97 0.66,0.19 1.12,0.12 1.79,0.13l-0.27 -4.53 -1.21 -0c-0.02,-1.73 0.1,-3.58 -0.57,-4.82 -1.26,-2.35 0.43,1.53 -0.37,-0.63 -0.4,-1.08 -0.23,-2.98 -0.22,-4.17l1.04 0 0 -1.48c3.2,-0.05 -0.05,-1.64 2.52,-1.85l0 -1.66c2.74,-0.25 -0.89,-1.98 2.4,-2.07 0.03,-4.26 0.11,-3.35 1,-3.47l0.03 -11.03c-0.83,-0.1 -0.99,0.92 -1.01,-3.5 -3.18,-0.07 0.32,-1.76 -2.32,-2.14 -0.06,-1.88 0.25,-2.17 -1.19,-2.29l0 -1.15 -1.39 0 -0 -1.45 -1.05 0 0 -1.04 -1.09 0 0 -1.04 -1.49 0c-0.05,-3.19 -1.65,0.03 -1.86,-2.49l-1.75 0c-0.06,-0.81 0.76,-1.12 -3.26,-1.21l0 -1.24 -2.44 0.07 0 1.26z"/>
   <path class="fil0" d="M25.03 27.22c-2.74,0.04 -2.34,0.25 -2.46,1.07l-2.19 0.29c-0.17,1.01 -0.27,1.51 -0.68,2.13 -1.1,1.66 -0.65,1.2 -1.91,1.24 -0.02,0.53 -0.04,1.68 -0.1,2.15 -0.24,1.74 0.23,1.16 -0.95,1.29l0.13 4.84c3.61,0.36 21.95,0.32 25.79,0l0.11 -4.78c-1.42,-0.18 -0.6,0.51 -0.96,-1.03 -0.07,-0.29 -0.15,-1.97 -0.18,-2.38l-1.35 0 0 -1.16 -0.92 0 0 -1.53 -1.39 0 -0 -0.99 -1.19 0c-0.16,-1.43 -0.58,-1.08 -2.43,-1.12l0 -1.24 -9.31 -0.09 0 1.32z"/>
   <path class="fil1" d="M22.77 29.54c-0.08,2.57 0.22,0.62 -1.16,1.69l-0.41 0.31c-0.78,0.7 -0.63,0.69 -0.9,1.5 -1,2.98 -1.09,0.5 -1.13,4.85l21.12 0c-0.05,-3.08 -1.4,-4.49 -2.66,-6.43l-0.46 -0.62c-0.59,-0.95 -0.38,1.5 -0.48,-1.28 -1.89,-0.1 -1.4,-0.05 -2.49,-0.68l-1.76 -0.78c-0.92,-0.43 -0.08,-0.13 -0.62,-0.36l-6.38 0.97c-1.06,0.53 -0.52,0.66 -2.67,0.82z"/>
   <path class="fil0" d="M25.26 13.36l-1.37 0c-0.3,3.24 -0.28,4.59 -0.01,7.82l1.36 0c0.23,2.98 1.93,-0.57 2,2.55l4.98 0.04c0.04,-1.67 -0.12,-1.29 2,-1.47 0.6,-4.82 2.41,2.79 1.34,-8.92l-1.33 0c-0.05,-3.54 -1.69,0.03 -2.03,-2.57l-4.98 -0.05c-0.31,2.61 -1.94,-0.85 -1.98,2.6z"/>
   <path class="fil1" d="M27.36 14.29l-1.11 0 0 1.23c-1.21,0.05 -1.23,0.58 -0.95,2.21 0.45,2.64 0.78,-0.81 0.84,2.61l1.08 0 0 0.95 4.97 0.02 0 -1.04 1.06 0 0.11 -5.95 -1.29 -0 0 -0.97 -4.72 -0.08 -0 1.03z"/>
  </g>
 </g>
</svg>
